<svg width="171" height="101" viewBox="0 0 171 101" fill="none" xmlns="http://www.w3.org/2000/svg">
<path d="M8.256 43.296L12.432 42.144V21.36L8.4 21.696L4.848 25.968L1.344 25.68C1.344 23.024 1.472 19.68 1.728 15.648H31.776C32.032 19.68 32.16 23.024 32.16 25.68L28.704 25.968L25.104 21.696L21.168 21.36V40.224C21.168 40.992 21.216 41.488 21.312 41.712C21.408 41.936 21.68 42.16 22.128 42.384L25.104 44.16L24.912 48H8.496L8.256 43.296ZM40.785 48.624C38.609 48.624 36.865 48.032 35.553 46.848C34.241 45.632 33.585 44.08 33.585 42.192C33.585 39.664 34.849 37.68 37.377 36.24C39.937 34.8 43.649 33.984 48.513 33.792C48.513 32.288 48.385 31.184 48.129 30.48C47.905 29.744 47.473 29.248 46.833 28.992C46.225 28.704 45.281 28.56 44.001 28.56C42.689 28.56 41.761 28.608 41.217 28.704L39.249 32.592L35.697 32.352C35.153 29.792 34.769 27.136 34.545 24.384C36.337 23.776 38.289 23.296 40.401 22.944C42.545 22.592 44.545 22.416 46.401 22.416C49.793 22.416 52.225 23.088 53.697 24.432C55.169 25.744 55.905 27.936 55.905 31.008V41.04C55.905 41.616 55.953 42.016 56.049 42.24C56.177 42.464 56.433 42.688 56.817 42.912L58.737 44.016L58.545 46.992C54.833 47.856 51.905 48.336 49.761 48.432C49.697 48.24 49.601 47.904 49.473 47.424C49.345 46.912 49.233 46.432 49.137 45.984C47.889 46.784 46.513 47.424 45.009 47.904C43.537 48.384 42.129 48.624 40.785 48.624ZM44.001 43.2C45.281 43.2 46.833 42.768 48.657 41.904L48.465 38.256C47.697 38.192 47.185 38.16 46.929 38.16C46.065 38.16 45.057 38.256 43.905 38.448C42.753 38.608 41.841 38.8 41.169 39.024C41.073 39.44 41.025 39.824 41.025 40.176C41.025 41.136 41.281 41.888 41.793 42.432C42.337 42.944 43.073 43.2 44.001 43.2ZM69.3311 48.816C66.8031 48.816 63.8751 48.368 60.5471 47.472C60.7391 44.336 60.9471 42.016 61.1711 40.512L63.9071 39.984L66.9311 43.2C67.9871 43.52 69.1711 43.68 70.4831 43.68C71.2191 43.68 71.7951 43.632 72.2111 43.536C72.3071 43.28 72.3551 42.928 72.3551 42.48C72.3551 42.096 72.2591 41.776 72.0671 41.52C71.9071 41.264 71.5231 40.96 70.9151 40.608C70.3071 40.256 69.2511 39.712 67.7471 38.976C65.8591 37.984 64.4191 37.104 63.4271 36.336C62.4351 35.536 61.7151 34.72 61.2671 33.888C60.8511 33.056 60.6431 32.064 60.6431 30.912C60.6431 28.352 61.5871 26.32 63.4751 24.816C65.3951 23.312 67.9871 22.56 71.2511 22.56C72.5951 22.56 74.0031 22.72 75.4751 23.04C76.9791 23.328 78.3231 23.728 79.5071 24.24C79.5071 26.32 79.3631 28.64 79.0751 31.2L76.5791 31.584L73.3631 28.128C72.5311 27.872 71.3151 27.744 69.7151 27.744C69.4591 27.744 68.9471 27.776 68.1791 27.84C68.0831 28.032 68.0351 28.336 68.0351 28.752C68.0351 29.2 68.1631 29.6 68.4191 29.952C68.6751 30.272 69.1231 30.64 69.7631 31.056C70.4351 31.44 71.4911 32 72.9311 32.736C75.0431 33.76 76.6271 34.656 77.6831 35.424C78.7711 36.16 79.5231 36.912 79.9391 37.68C80.3871 38.448 80.6111 39.376 80.6111 40.464C80.6111 43.088 79.6031 45.136 77.5871 46.608C75.6031 48.08 72.8511 48.816 69.3311 48.816ZM82.1074 43.44L85.0834 42.576V19.584C85.0834 18.88 85.0354 18.432 84.9394 18.24C84.8434 18.016 84.5874 17.776 84.1714 17.52L82.0594 16.416L82.2034 12.768L83.6914 12.528C87.9154 11.76 90.8754 11.344 92.5714 11.28C92.8594 12.048 93.0674 12.88 93.1954 13.776V33.312L98.5234 28.128C98.6834 27.968 98.7634 27.792 98.7634 27.6C98.7634 27.44 98.7154 27.312 98.6194 27.216L97.2754 25.536L97.8034 22.896H108.459C108.747 23.952 108.939 25.088 109.035 26.304L101.067 33.12L110.331 45.888V48H101.883L93.1954 35.52V40.992C93.1954 41.664 93.2434 42.112 93.3394 42.336C93.4354 42.56 93.6914 42.8 94.1074 43.056L96.4594 44.4L96.2674 48H82.3474L82.1074 43.44ZM113.218 30.816C114.402 28.32 115.122 26.752 115.378 26.112C115.666 25.44 115.81 24.912 115.81 24.528C115.81 24.24 115.73 23.968 115.57 23.712C115.41 23.424 115.138 23.104 114.754 22.752L112.258 20.544C113.794 18.336 115.442 16.32 117.202 14.496C118.546 15.488 119.442 16.192 119.89 16.608C120.754 17.344 121.378 18.016 121.762 18.624C122.146 19.2 122.338 19.824 122.338 20.496C122.338 22.064 120.546 25.392 116.962 30.48L113.218 30.816ZM134.159 48.816C131.631 48.816 128.703 48.368 125.375 47.472C125.567 44.336 125.775 42.016 125.999 40.512L128.735 39.984L131.759 43.2C132.815 43.52 133.999 43.68 135.311 43.68C136.047 43.68 136.623 43.632 137.039 43.536C137.135 43.28 137.183 42.928 137.183 42.48C137.183 42.096 137.087 41.776 136.895 41.52C136.735 41.264 136.351 40.96 135.743 40.608C135.135 40.256 134.079 39.712 132.575 38.976C130.687 37.984 129.247 37.104 128.255 36.336C127.263 35.536 126.543 34.72 126.095 33.888C125.679 33.056 125.471 32.064 125.471 30.912C125.471 28.352 126.415 26.32 128.303 24.816C130.223 23.312 132.815 22.56 136.079 22.56C137.423 22.56 138.831 22.72 140.303 23.04C141.807 23.328 143.151 23.728 144.335 24.24C144.335 26.32 144.191 28.64 143.903 31.2L141.407 31.584L138.191 28.128C137.359 27.872 136.143 27.744 134.543 27.744C134.287 27.744 133.775 27.776 133.007 27.84C132.911 28.032 132.863 28.336 132.863 28.752C132.863 29.2 132.991 29.6 133.247 29.952C133.503 30.272 133.951 30.64 134.591 31.056C135.263 31.44 136.319 32 137.759 32.736C139.871 33.76 141.455 34.656 142.511 35.424C143.599 36.16 144.351 36.912 144.767 37.68C145.215 38.448 145.439 39.376 145.439 40.464C145.439 43.088 144.431 45.136 142.415 46.608C140.431 48.08 137.679 48.816 134.159 48.816Z" fill="#25384A"/>
<path d="M69.66 61.848L70.544 75.472C70.5787 76.2693 70.6653 76.7893 70.804 77.032C70.9427 77.2747 71.2547 77.5347 71.74 77.812L74.444 79.632L74.236 84H60.716L60.456 78.332L63.264 77.656L63.472 57.168C63.472 56.5093 63.42 56.0587 63.316 55.816C63.212 55.5733 62.9693 55.296 62.588 54.984L60.664 53.528L61.028 48.952H71.792L87.496 69.076L86.768 57.48C86.7333 56.648 86.6467 56.1107 86.508 55.868C86.3693 55.6253 86.0573 55.3653 85.572 55.088L82.868 53.32L83.024 48.952H96.44L96.648 54.256L93.996 55.4L93.788 83.532L87.808 85.508L69.66 61.848ZM111.782 84.676C107.38 84.676 104.086 83.5493 101.902 81.296C99.7531 79.0427 98.6784 75.5933 98.6784 70.948C98.6784 67.9667 99.2158 65.3667 100.29 63.148C101.4 60.9293 102.977 59.2307 105.022 58.052C107.068 56.8733 109.477 56.284 112.25 56.284C121.229 56.284 125.718 60.9293 125.718 70.22C125.718 74.7613 124.488 78.3147 122.026 80.88C119.6 83.4107 116.185 84.676 111.782 84.676ZM112.614 78.592C113.308 78.592 113.914 78.54 114.434 78.436C114.954 78.2973 115.509 78.0893 116.098 77.812C116.306 77.0147 116.48 75.992 116.618 74.744C116.757 73.496 116.826 72.3 116.826 71.156C116.826 68.348 116.376 66.216 115.474 64.76C114.608 63.304 113.308 62.576 111.574 62.576C110.43 62.576 109.269 62.732 108.09 63.044C107.848 63.564 107.657 64.4133 107.518 65.592C107.38 66.736 107.31 68.0533 107.31 69.544C107.31 72.456 107.761 74.692 108.662 76.252C109.598 77.812 110.916 78.592 112.614 78.592ZM129.509 63.928C129.127 62.992 128.867 62.3853 128.729 62.108C128.59 61.8307 128.33 61.4493 127.949 60.964L127.065 59.82L127.325 56.804H140.481L141.001 61.224L138.141 61.9L141.677 74.536L146.825 57.22L152.181 56.492L158.109 75.004L161.437 63.044C161.506 62.836 161.541 62.68 161.541 62.576C161.541 62.264 161.385 62.056 161.073 61.952L158.577 60.912L159.097 56.804H168.977L169.497 60.86L160.553 84.26L153.065 84.832L148.749 70.376L144.017 84.26L136.529 84.832L129.509 63.928Z" fill="#FEFEFE"/>
</svg>
