<svg width="153" height="26" viewBox="0 0 153 26" fill="none" xmlns="http://www.w3.org/2000/svg">
<path d="M12.2031 2.25V25H7.53125V2.25H12.2031ZM19.2031 2.25V5.92188H0.640625V2.25H19.2031ZM28.3438 21.1875V13.6562C28.3438 13.1146 28.2552 12.651 28.0781 12.2656C27.901 11.8698 27.625 11.5625 27.25 11.3438C26.8854 11.125 26.4115 11.0156 25.8281 11.0156C25.3281 11.0156 24.8958 11.1042 24.5312 11.2812C24.1667 11.4479 23.8854 11.6927 23.6875 12.0156C23.4896 12.3281 23.3906 12.6979 23.3906 13.125H18.8906C18.8906 12.4062 19.0573 11.724 19.3906 11.0781C19.724 10.4323 20.2083 9.86458 20.8438 9.375C21.4792 8.875 22.2344 8.48438 23.1094 8.20312C23.9948 7.92188 24.9844 7.78125 26.0781 7.78125C27.3906 7.78125 28.5573 8 29.5781 8.4375C30.599 8.875 31.401 9.53125 31.9844 10.4062C32.5781 11.2812 32.875 12.375 32.875 13.6875V20.9219C32.875 21.849 32.9323 22.6094 33.0469 23.2031C33.1615 23.7865 33.3281 24.2969 33.5469 24.7344V25H29C28.7812 24.5417 28.6146 23.9688 28.5 23.2812C28.3958 22.5833 28.3438 21.8854 28.3438 21.1875ZM28.9375 14.7031L28.9688 17.25H26.4531C25.8594 17.25 25.3438 17.3177 24.9062 17.4531C24.4688 17.5885 24.1094 17.7812 23.8281 18.0312C23.5469 18.2708 23.3385 18.5521 23.2031 18.875C23.0781 19.1979 23.0156 19.5521 23.0156 19.9375C23.0156 20.3229 23.1042 20.6719 23.2812 20.9844C23.4583 21.2865 23.7135 21.526 24.0469 21.7031C24.3802 21.8698 24.7708 21.9531 25.2188 21.9531C25.8958 21.9531 26.4844 21.8177 26.9844 21.5469C27.4844 21.276 27.8698 20.9427 28.1406 20.5469C28.4219 20.151 28.5677 19.776 28.5781 19.4219L29.7656 21.3281C29.599 21.7552 29.3698 22.1979 29.0781 22.6562C28.7969 23.1146 28.4375 23.5469 28 23.9531C27.5625 24.349 27.0365 24.6771 26.4219 24.9375C25.8073 25.1875 25.0781 25.3125 24.2344 25.3125C23.1615 25.3125 22.1875 25.099 21.3125 24.6719C20.4479 24.2344 19.7604 23.6354 19.25 22.875C18.75 22.1042 18.5 21.2292 18.5 20.25C18.5 19.3646 18.6667 18.5781 19 17.8906C19.3333 17.2031 19.8229 16.625 20.4688 16.1562C21.125 15.6771 21.9427 15.3177 22.9219 15.0781C23.901 14.8281 25.0365 14.7031 26.3281 14.7031H28.9375ZM45.4844 20.3281C45.4844 20.0052 45.3906 19.7135 45.2031 19.4531C45.0156 19.1927 44.6667 18.9531 44.1562 18.7344C43.6562 18.5052 42.9323 18.2969 41.9844 18.1094C41.1302 17.9219 40.3333 17.6875 39.5938 17.4062C38.8646 17.1146 38.2292 16.7656 37.6875 16.3594C37.1562 15.9531 36.7396 15.474 36.4375 14.9219C36.1354 14.3594 35.9844 13.7188 35.9844 13C35.9844 12.2917 36.1354 11.625 36.4375 11C36.75 10.375 37.1927 9.82292 37.7656 9.34375C38.349 8.85417 39.0573 8.47396 39.8906 8.20312C40.7344 7.92188 41.6823 7.78125 42.7344 7.78125C44.2031 7.78125 45.4635 8.01562 46.5156 8.48438C47.5781 8.95312 48.3906 9.59896 48.9531 10.4219C49.526 11.2344 49.8125 12.1615 49.8125 13.2031H45.3125C45.3125 12.7656 45.2188 12.375 45.0312 12.0312C44.8542 11.6771 44.5729 11.401 44.1875 11.2031C43.8125 10.9948 43.3229 10.8906 42.7188 10.8906C42.2188 10.8906 41.7865 10.9792 41.4219 11.1562C41.0573 11.3229 40.776 11.5521 40.5781 11.8438C40.3906 12.125 40.2969 12.4375 40.2969 12.7812C40.2969 13.0417 40.349 13.276 40.4531 13.4844C40.5677 13.6823 40.75 13.8646 41 14.0312C41.25 14.1979 41.5729 14.3542 41.9688 14.5C42.375 14.6354 42.875 14.7604 43.4688 14.875C44.6875 15.125 45.776 15.4531 46.7344 15.8594C47.6927 16.2552 48.4531 16.7969 49.0156 17.4844C49.5781 18.1615 49.8594 19.0521 49.8594 20.1562C49.8594 20.9062 49.6927 21.5938 49.3594 22.2188C49.026 22.8438 48.5469 23.3906 47.9219 23.8594C47.2969 24.3177 46.5469 24.6771 45.6719 24.9375C44.8073 25.1875 43.8333 25.3125 42.75 25.3125C41.1771 25.3125 39.8438 25.0312 38.75 24.4688C37.6667 23.9062 36.8438 23.1927 36.2812 22.3281C35.7292 21.4531 35.4531 20.5573 35.4531 19.6406H39.7188C39.7396 20.2552 39.8958 20.75 40.1875 21.125C40.4896 21.5 40.8698 21.7708 41.3281 21.9375C41.7969 22.1042 42.3021 22.1875 42.8438 22.1875C43.4271 22.1875 43.9115 22.1094 44.2969 21.9531C44.6823 21.7865 44.974 21.5677 45.1719 21.2969C45.3802 21.0156 45.4844 20.6927 45.4844 20.3281ZM57.2812 0.984375V25H52.7812V0.984375H57.2812ZM67.9375 8.09375L60.5938 16.4688L56.6562 20.4531L55.0156 17.2031L58.1406 13.2344L62.5312 8.09375H67.9375ZM63.2656 25L58.2656 17.1875L61.375 14.4688L68.4531 25H63.2656ZM73.9844 1V3.375C73.9844 4.05208 73.8542 4.75 73.5938 5.46875C73.3438 6.1875 73.0052 6.86979 72.5781 7.51562C72.151 8.15104 71.6823 8.69271 71.1719 9.14062L69.0625 7.92188C69.4479 7.30729 69.776 6.64062 70.0469 5.92188C70.3177 5.19271 70.4531 4.34896 70.4531 3.39062V1H73.9844ZM83.3281 20.3281C83.3281 20.0052 83.2344 19.7135 83.0469 19.4531C82.8594 19.1927 82.5104 18.9531 82 18.7344C81.5 18.5052 80.776 18.2969 79.8281 18.1094C78.974 17.9219 78.1771 17.6875 77.4375 17.4062C76.7083 17.1146 76.0729 16.7656 75.5312 16.3594C75 15.9531 74.5833 15.474 74.2812 14.9219C73.9792 14.3594 73.8281 13.7188 73.8281 13C73.8281 12.2917 73.9792 11.625 74.2812 11C74.5938 10.375 75.0365 9.82292 75.6094 9.34375C76.1927 8.85417 76.901 8.47396 77.7344 8.20312C78.5781 7.92188 79.526 7.78125 80.5781 7.78125C82.0469 7.78125 83.3073 8.01562 84.3594 8.48438C85.4219 8.95312 86.2344 9.59896 86.7969 10.4219C87.3698 11.2344 87.6562 12.1615 87.6562 13.2031H83.1562C83.1562 12.7656 83.0625 12.375 82.875 12.0312C82.6979 11.6771 82.4167 11.401 82.0312 11.2031C81.6562 10.9948 81.1667 10.8906 80.5625 10.8906C80.0625 10.8906 79.6302 10.9792 79.2656 11.1562C78.901 11.3229 78.6198 11.5521 78.4219 11.8438C78.2344 12.125 78.1406 12.4375 78.1406 12.7812C78.1406 13.0417 78.1927 13.276 78.2969 13.4844C78.4115 13.6823 78.5938 13.8646 78.8438 14.0312C79.0938 14.1979 79.4167 14.3542 79.8125 14.5C80.2188 14.6354 80.7188 14.7604 81.3125 14.875C82.5312 15.125 83.6198 15.4531 84.5781 15.8594C85.5365 16.2552 86.2969 16.7969 86.8594 17.4844C87.4219 18.1615 87.7031 19.0521 87.7031 20.1562C87.7031 20.9062 87.5365 21.5938 87.2031 22.2188C86.8698 22.8438 86.3906 23.3906 85.7656 23.8594C85.1406 24.3177 84.3906 24.6771 83.5156 24.9375C82.651 25.1875 81.6771 25.3125 80.5938 25.3125C79.0208 25.3125 77.6875 25.0312 76.5938 24.4688C75.5104 23.9062 74.6875 23.1927 74.125 22.3281C73.5729 21.4531 73.2969 20.5573 73.2969 19.6406H77.5625C77.5833 20.2552 77.7396 20.75 78.0312 21.125C78.3333 21.5 78.7135 21.7708 79.1719 21.9375C79.6406 22.1042 80.1458 22.1875 80.6875 22.1875C81.2708 22.1875 81.7552 22.1094 82.1406 21.9531C82.526 21.7865 82.8177 21.5677 83.0156 21.2969C83.224 21.0156 83.3281 20.6927 83.3281 20.3281Z" fill="#232323"/>
<path d="M109.422 2.25V25H104.734L95.5938 9.75V25H90.9062V2.25H95.5938L104.75 17.5156V2.25H109.422ZM112.5 16.7188V16.3906C112.5 15.151 112.677 14.0104 113.031 12.9688C113.385 11.9167 113.901 11.0052 114.578 10.2344C115.255 9.46354 116.089 8.86458 117.078 8.4375C118.068 8 119.203 7.78125 120.484 7.78125C121.766 7.78125 122.906 8 123.906 8.4375C124.906 8.86458 125.745 9.46354 126.422 10.2344C127.109 11.0052 127.63 11.9167 127.984 12.9688C128.339 14.0104 128.516 15.151 128.516 16.3906V16.7188C128.516 17.9479 128.339 19.0885 127.984 20.1406C127.63 21.1823 127.109 22.0938 126.422 22.875C125.745 23.6458 124.911 24.2448 123.922 24.6719C122.932 25.099 121.797 25.3125 120.516 25.3125C119.234 25.3125 118.094 25.099 117.094 24.6719C116.104 24.2448 115.266 23.6458 114.578 22.875C113.901 22.0938 113.385 21.1823 113.031 20.1406C112.677 19.0885 112.5 17.9479 112.5 16.7188ZM117 16.3906V16.7188C117 17.4271 117.062 18.0885 117.188 18.7031C117.312 19.3177 117.51 19.8594 117.781 20.3281C118.062 20.7865 118.427 21.1458 118.875 21.4062C119.323 21.6667 119.87 21.7969 120.516 21.7969C121.141 21.7969 121.677 21.6667 122.125 21.4062C122.573 21.1458 122.932 20.7865 123.203 20.3281C123.474 19.8594 123.672 19.3177 123.797 18.7031C123.932 18.0885 124 17.4271 124 16.7188V16.3906C124 15.7031 123.932 15.0573 123.797 14.4531C123.672 13.8385 123.469 13.2969 123.188 12.8281C122.917 12.349 122.557 11.974 122.109 11.7031C121.661 11.4323 121.12 11.2969 120.484 11.2969C119.849 11.2969 119.307 11.4323 118.859 11.7031C118.422 11.974 118.062 12.349 117.781 12.8281C117.51 13.2969 117.312 13.8385 117.188 14.4531C117.062 15.0573 117 15.7031 117 16.3906ZM136.109 20.625L139.625 8.09375H142.484L141.562 13.0156L138.047 25H135.656L136.109 20.625ZM134.328 8.09375L136.844 20.6094L137.078 25H134.266L129.984 8.09375H134.328ZM145.703 20.4062L148.156 8.09375H152.516L148.234 25H145.438L145.703 20.4062ZM142.875 8.09375L146.375 20.5312L146.859 25H144.453L140.938 13.0312L140.047 8.09375H142.875Z" fill="#E7A600"/>
</svg>
