<svg width="20" height="15" viewBox="0 0 20 15" fill="none" xmlns="http://www.w3.org/2000/svg">
<path fill-rule="evenodd" clip-rule="evenodd" d="M0.197139 0.243211C0.477033 -0.0621283 0.951459 -0.0827555 1.2568 0.197139L9.75 7.98258L18.2432 0.197139C18.5485 -0.0827555 19.023 -0.0621283 19.3029 0.243211C19.5828 0.54855 19.5621 1.02298 19.2568 1.30287L10.2568 9.55287C9.97006 9.81572 9.52995 9.81572 9.24321 9.55287L0.243211 1.30287C-0.0621283 1.02298 -0.0827555 0.54855 0.197139 0.243211Z" fill="white"/>
<path fill-rule="evenodd" clip-rule="evenodd" d="M4.47447e-06 0.750004C4.47447e-06 0.335791 0.335791 4.29566e-06 0.750004 4.29566e-06H18.75C19.1642 4.29566e-06 19.5 0.335791 19.5 0.750004V13.5C19.5 13.8978 19.342 14.2794 19.0607 14.5607C18.7794 14.842 18.3978 15 18 15H1.5C1.10218 15 0.72065 14.842 0.439344 14.5607C0.15804 14.2794 4.47447e-06 13.8978 4.47447e-06 13.5V0.750004ZM1.5 1.5V13.5H18V1.5H1.5Z" fill="white"/>
<path fill-rule="evenodd" clip-rule="evenodd" d="M8.66212 6.99308C8.94209 7.29835 8.92158 7.77278 8.6163 8.05275L1.4913 14.5871C1.18603 14.8671 0.711602 14.8466 0.431634 14.5413C0.151667 14.236 0.172182 13.7616 0.477454 13.4816L7.60245 6.94726C7.90773 6.66729 8.38216 6.68781 8.66212 6.99308Z" fill="white"/>
<path fill-rule="evenodd" clip-rule="evenodd" d="M10.8379 6.99308C11.1179 6.68781 11.5923 6.66729 11.8976 6.94726L19.0226 13.4816C19.3278 13.7616 19.3483 14.236 19.0684 14.5413C18.7884 14.8466 18.314 14.8671 18.0087 14.5871L10.8837 8.05275C10.5784 7.77278 10.5579 7.29835 10.8379 6.99308Z" fill="white"/>
</svg>
