<svg width="21" height="21" viewBox="0 0 21 21" fill="none" xmlns="http://www.w3.org/2000/svg">
<path fill-rule="evenodd" clip-rule="evenodd" d="M13.9205 1.61529C12.7567 1.38378 11.5503 1.5026 10.4539 1.95673C9.35754 2.41085 8.42047 3.17989 7.76118 4.16658C7.10189 5.15328 6.75 6.31331 6.75 7.5V7.50282C6.74713 8.26612 6.8939 9.02257 7.18202 9.7294C7.29594 10.0089 7.23124 10.3294 7.01783 10.5428L1.5 16.0607V18.75H3.75V17.25C3.75 16.8358 4.08579 16.5 4.5 16.5H6V15C6 14.5858 6.33579 14.25 6.75 14.25H8.68934L9.70717 13.2322L10.2375 13.7625L10.5206 13.068C11.2274 13.3561 11.9839 13.5029 12.7472 13.5L12.75 13.5C13.9367 13.5 15.0967 13.1481 16.0834 12.4888C17.0701 11.8295 17.8392 10.8925 18.2933 9.7961C18.7474 8.69975 18.8662 7.49335 18.6347 6.32946C18.4032 5.16558 17.8318 4.09648 16.9926 3.25736C16.1535 2.41825 15.0844 1.8468 13.9205 1.61529ZM10.429 14.6317L9.53033 15.5303C9.38968 15.671 9.19891 15.75 9 15.75H7.5V17.25C7.5 17.6642 7.16421 18 6.75 18H5.25V19.5C5.25 19.9142 4.91421 20.25 4.5 20.25H0.75C0.335786 20.25 0 19.9142 0 19.5V15.75C0 15.5511 0.0790176 15.3603 0.21967 15.2197L5.61834 9.821C5.37191 9.07274 5.24718 8.2886 5.25 7.49861C5.25027 6.01574 5.69012 4.56621 6.51398 3.33323C7.33809 2.09986 8.50943 1.13856 9.87987 0.570907C11.2503 0.00324959 12.7583 -0.145275 14.2132 0.144114C15.668 0.433503 17.0044 1.14781 18.0533 2.1967C19.1022 3.2456 19.8165 4.58197 20.1059 6.03683C20.3953 7.49168 20.2468 8.99968 19.6791 10.3701C19.1114 11.7406 18.1501 12.9119 16.9168 13.736C15.6838 14.5599 14.2343 14.9997 12.7514 15C12.7509 15 12.7505 15 12.75 15V14.25L12.7528 15C12.7524 15 12.7519 15 12.7514 15C11.9614 15.0028 11.1773 14.8781 10.429 14.6317Z" fill="white"/>
<path d="M14.625 6.75C15.2463 6.75 15.75 6.24632 15.75 5.625C15.75 5.00368 15.2463 4.5 14.625 4.5C14.0037 4.5 13.5 5.00368 13.5 5.625C13.5 6.24632 14.0037 6.75 14.625 6.75Z" fill="white"/>
</svg>
